<mxfile host="Electron" modified="2024-05-02T18:13:39.567Z" agent="Mozilla/5.0 (Macintosh; Intel Mac OS X 10_15_7) AppleWebKit/537.36 (KHTML, like Gecko) draw.io/22.1.21 Chrome/120.0.6099.109 Electron/28.1.0 Safari/537.36" etag="PPN_eac0UTIoGrK_livg" version="22.1.21" type="device">
  <diagram name="Page-1" id="N-YZeGlN1Mszi96979O7">
    <mxGraphModel dx="109" dy="1092" grid="0" gridSize="10" guides="1" tooltips="1" connect="1" arrows="1" fold="1" page="0" pageScale="1" pageWidth="827" pageHeight="1169" math="0" shadow="0">
      <root>
        <mxCell id="0" />
        <mxCell id="1" parent="0" />
        <mxCell id="Hd2ReHw1TCDyCZ7Bs2yk-1" value="User" style="rounded=1;whiteSpace=wrap;html=1;fontFamily=Times New Roman;fontStyle=1" parent="1" vertex="1">
          <mxGeometry x="1186" y="433" width="64" height="27" as="geometry" />
        </mxCell>
        <mxCell id="Hd2ReHw1TCDyCZ7Bs2yk-2" value="Music player" style="ellipse;whiteSpace=wrap;html=1;aspect=fixed;fontFamily=Times New Roman;fontSize=11;fontStyle=1" parent="1" vertex="1">
          <mxGeometry x="1459" y="375" width="60" height="60" as="geometry" />
        </mxCell>
        <mxCell id="Hd2ReHw1TCDyCZ7Bs2yk-4" value="Recognize&lt;br style=&quot;border-color: var(--border-color);&quot;&gt;songs" style="ellipse;whiteSpace=wrap;html=1;aspect=fixed;rounded=1;shadow=0;glass=0;strokeColor=default;align=center;verticalAlign=middle;fontFamily=Times New Roman;fontSize=11;fontColor=default;fillColor=default;fontStyle=1" parent="1" vertex="1">
          <mxGeometry x="1459" y="569" width="60" height="60" as="geometry" />
        </mxCell>
        <mxCell id="Hd2ReHw1TCDyCZ7Bs2yk-5" value="&lt;font style=&quot;font-size: 9px;&quot;&gt;&lt;b&gt;Controls&lt;/b&gt;&lt;/font&gt;" style="endArrow=classic;html=1;rounded=0;fontFamily=Times New Roman;fontSize=12;fontColor=default;entryX=0;entryY=0.5;entryDx=0;entryDy=0;exitX=1;exitY=0.5;exitDx=0;exitDy=0;" parent="1" source="Hd2ReHw1TCDyCZ7Bs2yk-1" target="Hd2ReHw1TCDyCZ7Bs2yk-2" edge="1">
          <mxGeometry width="50" height="50" relative="1" as="geometry">
            <mxPoint x="1251" y="446" as="sourcePoint" />
            <mxPoint x="1334" y="391" as="targetPoint" />
          </mxGeometry>
        </mxCell>
        <mxCell id="Hd2ReHw1TCDyCZ7Bs2yk-8" style="edgeStyle=orthogonalEdgeStyle;rounded=0;orthogonalLoop=1;jettySize=auto;html=1;exitX=0;exitY=0.5;exitDx=0;exitDy=0;entryX=1;entryY=0.5;entryDx=0;entryDy=0;" parent="1" source="Hd2ReHw1TCDyCZ7Bs2yk-11" target="Hd2ReHw1TCDyCZ7Bs2yk-2" edge="1">
          <mxGeometry relative="1" as="geometry" />
        </mxCell>
        <mxCell id="Hd2ReHw1TCDyCZ7Bs2yk-9" style="edgeStyle=orthogonalEdgeStyle;rounded=0;orthogonalLoop=1;jettySize=auto;html=1;exitX=0;exitY=0.5;exitDx=0;exitDy=0;entryX=1;entryY=0.5;entryDx=0;entryDy=0;" parent="1" source="Hd2ReHw1TCDyCZ7Bs2yk-11" target="Hd2ReHw1TCDyCZ7Bs2yk-4" edge="1">
          <mxGeometry relative="1" as="geometry" />
        </mxCell>
        <mxCell id="Hd2ReHw1TCDyCZ7Bs2yk-10" style="edgeStyle=orthogonalEdgeStyle;rounded=0;orthogonalLoop=1;jettySize=auto;html=1;exitX=0;exitY=0.5;exitDx=0;exitDy=0;entryX=0.5;entryY=0;entryDx=0;entryDy=0;" parent="1" source="Hd2ReHw1TCDyCZ7Bs2yk-11" target="Hd2ReHw1TCDyCZ7Bs2yk-13" edge="1">
          <mxGeometry relative="1" as="geometry" />
        </mxCell>
        <mxCell id="Hd2ReHw1TCDyCZ7Bs2yk-11" value="Admin" style="rounded=1;whiteSpace=wrap;html=1;fontFamily=Times New Roman;fontStyle=1" parent="1" vertex="1">
          <mxGeometry x="1842" y="386" width="64" height="27" as="geometry" />
        </mxCell>
        <mxCell id="Hd2ReHw1TCDyCZ7Bs2yk-12" value="&lt;p style=&quot;line-height: 50%;&quot;&gt;&lt;font face=&quot;Times New Roman&quot; style=&quot;font-size: 9px;&quot;&gt;&lt;b style=&quot;&quot;&gt;music from &lt;br&gt;song&lt;/b&gt;&lt;/font&gt;&lt;/p&gt;" style="endArrow=classic;html=1;rounded=0;fontFamily=Helvetica;fontSize=12;fontColor=default;exitX=1;exitY=0.5;exitDx=0;exitDy=0;entryX=0;entryY=0;entryDx=0;entryDy=0;" parent="1" source="Hd2ReHw1TCDyCZ7Bs2yk-1" target="Hd2ReHw1TCDyCZ7Bs2yk-4" edge="1">
          <mxGeometry width="50" height="50" relative="1" as="geometry">
            <mxPoint x="1296" y="569" as="sourcePoint" />
            <mxPoint x="1346" y="519" as="targetPoint" />
          </mxGeometry>
        </mxCell>
        <mxCell id="Hd2ReHw1TCDyCZ7Bs2yk-13" value="Manage&lt;br&gt;Account" style="ellipse;whiteSpace=wrap;html=1;aspect=fixed;rounded=1;shadow=0;glass=0;strokeColor=default;align=center;verticalAlign=middle;fontFamily=Times New Roman;fontSize=11;fontColor=default;fillColor=default;fontStyle=1;direction=south;" parent="1" vertex="1">
          <mxGeometry x="1459" y="289" width="60" height="60" as="geometry" />
        </mxCell>
        <mxCell id="Hd2ReHw1TCDyCZ7Bs2yk-14" value="&lt;font style=&quot;font-size: 9px;&quot; face=&quot;Times New Roman&quot;&gt;&lt;b style=&quot;&quot;&gt;Access&lt;/b&gt;&lt;/font&gt;" style="endArrow=classic;html=1;rounded=0;exitX=1;exitY=0.5;exitDx=0;exitDy=0;entryX=0.5;entryY=1;entryDx=0;entryDy=0;" parent="1" source="Hd2ReHw1TCDyCZ7Bs2yk-1" target="Hd2ReHw1TCDyCZ7Bs2yk-13" edge="1">
          <mxGeometry width="50" height="50" relative="1" as="geometry">
            <mxPoint x="1251" y="446" as="sourcePoint" />
            <mxPoint x="1382" y="372" as="targetPoint" />
          </mxGeometry>
        </mxCell>
        <mxCell id="Hd2ReHw1TCDyCZ7Bs2yk-15" value="Download&lt;br&gt;songs" style="ellipse;whiteSpace=wrap;html=1;aspect=fixed;rounded=1;shadow=0;glass=0;strokeColor=default;align=center;verticalAlign=middle;fontFamily=Times New Roman;fontSize=11;fontColor=default;fillColor=default;fontStyle=1" parent="1" vertex="1">
          <mxGeometry x="1459" y="460" width="60" height="60" as="geometry" />
        </mxCell>
        <mxCell id="Hd2ReHw1TCDyCZ7Bs2yk-16" value="" style="endArrow=classic;html=1;rounded=0;exitX=1;exitY=0.5;exitDx=0;exitDy=0;entryX=0.029;entryY=0.298;entryDx=0;entryDy=0;entryPerimeter=0;" parent="1" source="Hd2ReHw1TCDyCZ7Bs2yk-1" target="Hd2ReHw1TCDyCZ7Bs2yk-15" edge="1">
          <mxGeometry width="50" height="50" relative="1" as="geometry">
            <mxPoint x="1326" y="483" as="sourcePoint" />
            <mxPoint x="1376" y="433" as="targetPoint" />
          </mxGeometry>
        </mxCell>
        <mxCell id="Hd2ReHw1TCDyCZ7Bs2yk-17" value="&lt;font style=&quot;font-size: 9px;&quot; face=&quot;Times New Roman&quot;&gt;&lt;b&gt;Song link&lt;/b&gt;&lt;/font&gt;" style="edgeLabel;html=1;align=center;verticalAlign=middle;resizable=0;points=[];" parent="Hd2ReHw1TCDyCZ7Bs2yk-16" vertex="1" connectable="0">
          <mxGeometry x="0.0238" y="-2" relative="1" as="geometry">
            <mxPoint as="offset" />
          </mxGeometry>
        </mxCell>
        <mxCell id="Hd2ReHw1TCDyCZ7Bs2yk-18" style="edgeStyle=orthogonalEdgeStyle;rounded=0;orthogonalLoop=1;jettySize=auto;html=1;exitX=0;exitY=0.5;exitDx=0;exitDy=0;entryX=0.985;entryY=0.659;entryDx=0;entryDy=0;entryPerimeter=0;" parent="1" source="Hd2ReHw1TCDyCZ7Bs2yk-11" target="Hd2ReHw1TCDyCZ7Bs2yk-15" edge="1">
          <mxGeometry relative="1" as="geometry" />
        </mxCell>
        <mxCell id="Hd2ReHw1TCDyCZ7Bs2yk-19" value="&lt;font style=&quot;font-size: 9px;&quot; face=&quot;Times New Roman&quot;&gt;&lt;b&gt;Manages&lt;/b&gt;&lt;/font&gt;" style="edgeLabel;html=1;align=center;verticalAlign=middle;resizable=0;points=[];" parent="Hd2ReHw1TCDyCZ7Bs2yk-18" vertex="1" connectable="0">
          <mxGeometry x="-0.5839" y="2" relative="1" as="geometry">
            <mxPoint as="offset" />
          </mxGeometry>
        </mxCell>
        <mxCell id="Hd2ReHw1TCDyCZ7Bs2yk-20" value="&lt;font style=&quot;font-size: 24px;&quot; face=&quot;Times New Roman&quot;&gt;&lt;b&gt;Level 1 Data Flow Diagram&lt;/b&gt;&lt;/font&gt;" style="text;html=1;align=center;verticalAlign=middle;resizable=0;points=[];autosize=1;strokeColor=none;fillColor=none;" parent="1" vertex="1">
          <mxGeometry x="1367" y="646" width="310" height="40" as="geometry" />
        </mxCell>
        <mxCell id="Hd2ReHw1TCDyCZ7Bs2yk-21" style="edgeStyle=orthogonalEdgeStyle;rounded=0;orthogonalLoop=1;jettySize=auto;html=1;exitX=1;exitY=0.5;exitDx=0;exitDy=0;entryX=0;entryY=0.5;entryDx=0;entryDy=0;" parent="1" source="Hd2ReHw1TCDyCZ7Bs2yk-23" target="Hd2ReHw1TCDyCZ7Bs2yk-24" edge="1">
          <mxGeometry relative="1" as="geometry" />
        </mxCell>
        <mxCell id="Hd2ReHw1TCDyCZ7Bs2yk-22" value="&lt;font style=&quot;font-size: 18px;&quot; face=&quot;Times New Roman&quot;&gt;&lt;b style=&quot;&quot;&gt;Access&lt;/b&gt;&lt;/font&gt;" style="edgeLabel;html=1;align=center;verticalAlign=middle;resizable=0;points=[];" parent="Hd2ReHw1TCDyCZ7Bs2yk-21" vertex="1" connectable="0">
          <mxGeometry x="-0.0731" y="-5" relative="1" as="geometry">
            <mxPoint x="1" y="-5" as="offset" />
          </mxGeometry>
        </mxCell>
        <mxCell id="Hd2ReHw1TCDyCZ7Bs2yk-23" value="&lt;font face=&quot;Times New Roman&quot; style=&quot;font-size: 24px;&quot;&gt;&lt;b&gt;User&lt;/b&gt;&lt;/font&gt;" style="rounded=0;whiteSpace=wrap;html=1;" parent="1" vertex="1">
          <mxGeometry x="1186" y="-138" width="120" height="60" as="geometry" />
        </mxCell>
        <mxCell id="Hd2ReHw1TCDyCZ7Bs2yk-24" value="&lt;font face=&quot;Times New Roman&quot; style=&quot;font-size: 14px;&quot;&gt;&lt;b&gt;Music Player and Downloader&lt;/b&gt;&lt;/font&gt;" style="ellipse;whiteSpace=wrap;html=1;aspect=fixed;" parent="1" vertex="1">
          <mxGeometry x="1462" y="-158" width="100" height="100" as="geometry" />
        </mxCell>
        <mxCell id="Hd2ReHw1TCDyCZ7Bs2yk-25" style="edgeStyle=orthogonalEdgeStyle;rounded=0;orthogonalLoop=1;jettySize=auto;html=1;exitX=0;exitY=0.5;exitDx=0;exitDy=0;" parent="1" source="Hd2ReHw1TCDyCZ7Bs2yk-27" target="Hd2ReHw1TCDyCZ7Bs2yk-24" edge="1">
          <mxGeometry relative="1" as="geometry" />
        </mxCell>
        <mxCell id="Hd2ReHw1TCDyCZ7Bs2yk-26" value="&lt;font style=&quot;font-size: 18px;&quot; face=&quot;Times New Roman&quot;&gt;&lt;b&gt;Manages&lt;/b&gt;&lt;/font&gt;" style="edgeLabel;html=1;align=center;verticalAlign=middle;resizable=0;points=[];" parent="Hd2ReHw1TCDyCZ7Bs2yk-25" vertex="1" connectable="0">
          <mxGeometry x="0.0292" relative="1" as="geometry">
            <mxPoint as="offset" />
          </mxGeometry>
        </mxCell>
        <mxCell id="Hd2ReHw1TCDyCZ7Bs2yk-27" value="&lt;font face=&quot;Times New Roman&quot; style=&quot;font-size: 24px;&quot;&gt;&lt;b&gt;Admin&lt;/b&gt;&lt;/font&gt;" style="rounded=0;whiteSpace=wrap;html=1;" parent="1" vertex="1">
          <mxGeometry x="1722" y="-138" width="120" height="60" as="geometry" />
        </mxCell>
        <mxCell id="Hd2ReHw1TCDyCZ7Bs2yk-28" value="&lt;font style=&quot;font-size: 24px;&quot; face=&quot;Times New Roman&quot;&gt;&lt;b&gt;Level 0 Data Flow Diagram&lt;/b&gt;&lt;/font&gt;" style="text;html=1;align=center;verticalAlign=middle;resizable=0;points=[];autosize=1;strokeColor=none;fillColor=none;" parent="1" vertex="1">
          <mxGeometry x="1367" y="-25" width="310" height="40" as="geometry" />
        </mxCell>
        <mxCell id="Hd2ReHw1TCDyCZ7Bs2yk-32" value="" style="endArrow=none;html=1;rounded=0;" parent="1" edge="1">
          <mxGeometry width="50" height="50" relative="1" as="geometry">
            <mxPoint x="1834" y="498.84999999999997" as="sourcePoint" />
            <mxPoint x="1903" y="499.34999999999997" as="targetPoint" />
          </mxGeometry>
        </mxCell>
        <mxCell id="Hd2ReHw1TCDyCZ7Bs2yk-33" value="" style="endArrow=none;html=1;rounded=0;" parent="1" edge="1">
          <mxGeometry width="50" height="50" relative="1" as="geometry">
            <mxPoint x="1837" y="529.4000000000001" as="sourcePoint" />
            <mxPoint x="1906" y="529.9000000000001" as="targetPoint" />
          </mxGeometry>
        </mxCell>
        <mxCell id="Hd2ReHw1TCDyCZ7Bs2yk-34" value="&lt;font face=&quot;Times New Roman&quot;&gt;&lt;b&gt;Store&lt;/b&gt;&lt;/font&gt;" style="text;html=1;align=center;verticalAlign=middle;resizable=0;points=[];autosize=1;strokeColor=none;fillColor=none;" parent="1" vertex="1">
          <mxGeometry x="1846" y="500.96" width="45" height="26" as="geometry" />
        </mxCell>
        <mxCell id="Hd2ReHw1TCDyCZ7Bs2yk-38" value="" style="endArrow=classic;html=1;rounded=0;exitX=1;exitY=1;exitDx=0;exitDy=0;" parent="1" source="Hd2ReHw1TCDyCZ7Bs2yk-15" target="Hd2ReHw1TCDyCZ7Bs2yk-34" edge="1">
          <mxGeometry width="50" height="50" relative="1" as="geometry">
            <mxPoint x="1416" y="517.96" as="sourcePoint" />
            <mxPoint x="1803" y="289.96" as="targetPoint" />
            <Array as="points" />
          </mxGeometry>
        </mxCell>
        <mxCell id="Hd2ReHw1TCDyCZ7Bs2yk-41" value="User" style="rounded=1;whiteSpace=wrap;html=1;fontFamily=Times New Roman;fontStyle=1" parent="1" vertex="1">
          <mxGeometry x="1218" y="1075" width="64" height="27" as="geometry" />
        </mxCell>
        <mxCell id="Hd2ReHw1TCDyCZ7Bs2yk-42" value="Music player" style="ellipse;whiteSpace=wrap;html=1;aspect=fixed;fontFamily=Times New Roman;fontSize=11;fontStyle=1" parent="1" vertex="1">
          <mxGeometry x="1439" y="969" width="60" height="60" as="geometry" />
        </mxCell>
        <mxCell id="Hd2ReHw1TCDyCZ7Bs2yk-43" value="" style="endArrow=none;html=1;rounded=0;fontFamily=Times New Roman;fontSize=12;fontColor=default;fontStyle=1" parent="1" edge="1">
          <mxGeometry width="50" height="50" relative="1" as="geometry">
            <mxPoint x="1714" y="1075" as="sourcePoint" />
            <mxPoint x="1790" y="1075" as="targetPoint" />
          </mxGeometry>
        </mxCell>
        <mxCell id="Hd2ReHw1TCDyCZ7Bs2yk-44" value="" style="endArrow=none;html=1;rounded=0;fontFamily=Times New Roman;fontSize=12;fontColor=default;fontStyle=1" parent="1" edge="1">
          <mxGeometry width="50" height="50" relative="1" as="geometry">
            <mxPoint x="1714" y="1113.41" as="sourcePoint" />
            <mxPoint x="1790" y="1113.41" as="targetPoint" />
          </mxGeometry>
        </mxCell>
        <mxCell id="Hd2ReHw1TCDyCZ7Bs2yk-45" value="Store" style="text;html=1;strokeColor=none;fillColor=none;align=center;verticalAlign=middle;whiteSpace=wrap;rounded=0;fontSize=12;fontFamily=Times New Roman;fontColor=default;fontStyle=1" parent="1" vertex="1">
          <mxGeometry x="1722" y="1079" width="60" height="30" as="geometry" />
        </mxCell>
        <mxCell id="Hd2ReHw1TCDyCZ7Bs2yk-47" value="Download &lt;br style=&quot;font-size: 11px;&quot;&gt;songs" style="ellipse;whiteSpace=wrap;html=1;aspect=fixed;rounded=1;shadow=0;glass=0;strokeColor=default;align=center;verticalAlign=middle;fontFamily=Times New Roman;fontSize=11;fontColor=default;fillColor=default;fontStyle=1" parent="1" vertex="1">
          <mxGeometry x="1439" y="1107" width="60" height="60" as="geometry" />
        </mxCell>
        <mxCell id="Hd2ReHw1TCDyCZ7Bs2yk-48" value="Recognize&lt;br style=&quot;border-color: var(--border-color);&quot;&gt;songs" style="ellipse;whiteSpace=wrap;html=1;aspect=fixed;rounded=1;shadow=0;glass=0;strokeColor=default;align=center;verticalAlign=middle;fontFamily=Times New Roman;fontSize=11;fontColor=default;fillColor=default;fontStyle=1" parent="1" vertex="1">
          <mxGeometry x="1437" y="1182" width="60" height="60" as="geometry" />
        </mxCell>
        <mxCell id="Hd2ReHw1TCDyCZ7Bs2yk-49" value="&lt;font style=&quot;font-size: 9px;&quot;&gt;&lt;b&gt;Controls&lt;/b&gt;&lt;/font&gt;" style="endArrow=classic;html=1;rounded=0;fontFamily=Times New Roman;fontSize=12;fontColor=default;entryX=0;entryY=0.5;entryDx=0;entryDy=0;exitX=1;exitY=0.5;exitDx=0;exitDy=0;" parent="1" source="Hd2ReHw1TCDyCZ7Bs2yk-41" target="Hd2ReHw1TCDyCZ7Bs2yk-42" edge="1">
          <mxGeometry width="50" height="50" relative="1" as="geometry">
            <mxPoint x="1283" y="1088" as="sourcePoint" />
            <mxPoint x="1366" y="1033" as="targetPoint" />
          </mxGeometry>
        </mxCell>
        <mxCell id="Hd2ReHw1TCDyCZ7Bs2yk-50" value="&lt;font style=&quot;font-size: 8px;&quot;&gt;&lt;b&gt;Request&amp;nbsp;songs&lt;/b&gt;&lt;/font&gt;" style="endArrow=classic;html=1;rounded=0;fontFamily=Times New Roman;fontSize=12;fontColor=default;exitX=1;exitY=0.5;exitDx=0;exitDy=0;" parent="1" source="Hd2ReHw1TCDyCZ7Bs2yk-42" edge="1">
          <mxGeometry width="50" height="50" relative="1" as="geometry">
            <mxPoint x="1544" y="1108" as="sourcePoint" />
            <mxPoint x="1749" y="1074" as="targetPoint" />
          </mxGeometry>
        </mxCell>
        <mxCell id="Hd2ReHw1TCDyCZ7Bs2yk-51" value="&lt;b&gt;&lt;font style=&quot;font-size: 8px;&quot;&gt;Sends data&lt;/font&gt;&lt;/b&gt;" style="curved=1;endArrow=classic;html=1;rounded=0;fontFamily=Times New Roman;fontSize=12;fontColor=default;entryX=1;entryY=0.5;entryDx=0;entryDy=0;" parent="1" target="Hd2ReHw1TCDyCZ7Bs2yk-42" edge="1">
          <mxGeometry width="50" height="50" relative="1" as="geometry">
            <mxPoint x="1748" y="1073" as="sourcePoint" />
            <mxPoint x="1624" y="1037" as="targetPoint" />
            <Array as="points">
              <mxPoint x="1676" y="1001" />
              <mxPoint x="1618" y="984" />
            </Array>
          </mxGeometry>
        </mxCell>
        <mxCell id="Hd2ReHw1TCDyCZ7Bs2yk-54" value="&lt;b&gt;&lt;font style=&quot;font-size: 8px;&quot;&gt;songs link&lt;/font&gt;&lt;/b&gt;" style="endArrow=classic;html=1;rounded=0;fontFamily=Times New Roman;fontSize=12;fontColor=default;exitX=1;exitY=0.5;exitDx=0;exitDy=0;entryX=0;entryY=0.5;entryDx=0;entryDy=0;" parent="1" source="Hd2ReHw1TCDyCZ7Bs2yk-41" target="Hd2ReHw1TCDyCZ7Bs2yk-47" edge="1">
          <mxGeometry width="50" height="50" relative="1" as="geometry">
            <mxPoint x="1331" y="1180" as="sourcePoint" />
            <mxPoint x="1381" y="1130" as="targetPoint" />
          </mxGeometry>
        </mxCell>
        <mxCell id="Hd2ReHw1TCDyCZ7Bs2yk-55" value="&lt;b&gt;&lt;font style=&quot;font-size: 8px;&quot;&gt;song link&lt;/font&gt;&lt;/b&gt;" style="endArrow=classic;html=1;rounded=0;fontFamily=Times New Roman;fontSize=12;fontColor=default;exitX=1;exitY=0.5;exitDx=0;exitDy=0;" parent="1" source="Hd2ReHw1TCDyCZ7Bs2yk-47" target="Hd2ReHw1TCDyCZ7Bs2yk-56" edge="1">
          <mxGeometry width="50" height="50" relative="1" as="geometry">
            <mxPoint x="1548" y="1180" as="sourcePoint" />
            <mxPoint x="1570" y="1148" as="targetPoint" />
          </mxGeometry>
        </mxCell>
        <mxCell id="Hd2ReHw1TCDyCZ7Bs2yk-56" value="&lt;b&gt;&lt;font style=&quot;font-size: 11px;&quot;&gt;access the internet&lt;/font&gt;&lt;/b&gt;" style="ellipse;whiteSpace=wrap;html=1;aspect=fixed;rounded=1;shadow=0;glass=0;strokeColor=default;align=center;verticalAlign=middle;fontFamily=Times New Roman;fontSize=12;fontColor=default;fillColor=default;" parent="1" vertex="1">
          <mxGeometry x="1562" y="1120" width="60" height="60" as="geometry" />
        </mxCell>
        <mxCell id="Hd2ReHw1TCDyCZ7Bs2yk-57" value="&lt;b&gt;&lt;font style=&quot;font-size: 8px;&quot;&gt;save song&lt;/font&gt;&lt;/b&gt;" style="endArrow=classic;html=1;rounded=0;fontFamily=Helvetica;fontSize=12;fontColor=default;exitX=1;exitY=0.5;exitDx=0;exitDy=0;" parent="1" source="Hd2ReHw1TCDyCZ7Bs2yk-56" edge="1">
          <mxGeometry width="50" height="50" relative="1" as="geometry">
            <mxPoint x="1623" y="1155" as="sourcePoint" />
            <mxPoint x="1707" y="1104" as="targetPoint" />
          </mxGeometry>
        </mxCell>
        <mxCell id="Hd2ReHw1TCDyCZ7Bs2yk-58" value="Admin" style="rounded=1;whiteSpace=wrap;html=1;fontFamily=Times New Roman;fontStyle=1" parent="1" vertex="1">
          <mxGeometry x="1864" y="1072" width="64" height="27" as="geometry" />
        </mxCell>
        <mxCell id="Hd2ReHw1TCDyCZ7Bs2yk-59" value="&lt;b&gt;&lt;font face=&quot;Times New Roman&quot; style=&quot;font-size: 8px;&quot;&gt;Manages&lt;/font&gt;&lt;/b&gt;" style="endArrow=classic;html=1;rounded=0;fontFamily=Helvetica;fontSize=12;fontColor=default;exitX=0;exitY=0.5;exitDx=0;exitDy=0;" parent="1" source="Hd2ReHw1TCDyCZ7Bs2yk-58" edge="1">
          <mxGeometry x="-0.0003" width="50" height="50" relative="1" as="geometry">
            <mxPoint x="1893" y="1091" as="sourcePoint" />
            <mxPoint x="1791" y="1096" as="targetPoint" />
            <mxPoint as="offset" />
          </mxGeometry>
        </mxCell>
        <mxCell id="Hd2ReHw1TCDyCZ7Bs2yk-60" value="&lt;p style=&quot;line-height: 50%;&quot;&gt;&lt;font face=&quot;Times New Roman&quot; style=&quot;font-size: 8px;&quot;&gt;&lt;b&gt;music from &lt;br&gt;song&lt;/b&gt;&lt;/font&gt;&lt;/p&gt;" style="endArrow=classic;html=1;rounded=0;fontFamily=Helvetica;fontSize=12;fontColor=default;exitX=1;exitY=0.5;exitDx=0;exitDy=0;entryX=0;entryY=0;entryDx=0;entryDy=0;" parent="1" source="Hd2ReHw1TCDyCZ7Bs2yk-41" target="Hd2ReHw1TCDyCZ7Bs2yk-48" edge="1">
          <mxGeometry width="50" height="50" relative="1" as="geometry">
            <mxPoint x="1328" y="1211" as="sourcePoint" />
            <mxPoint x="1378" y="1161" as="targetPoint" />
          </mxGeometry>
        </mxCell>
        <mxCell id="Hd2ReHw1TCDyCZ7Bs2yk-61" value="Access the Internet" style="ellipse;whiteSpace=wrap;html=1;aspect=fixed;rounded=1;shadow=0;glass=0;strokeColor=default;align=center;verticalAlign=middle;fontFamily=Times New Roman;fontSize=11;fontColor=default;fillColor=default;fontStyle=1" parent="1" vertex="1">
          <mxGeometry x="1220" y="1180" width="60" height="60" as="geometry" />
        </mxCell>
        <mxCell id="Hd2ReHw1TCDyCZ7Bs2yk-62" value="&lt;b&gt;&lt;font style=&quot;font-size: 8px;&quot; face=&quot;Times New Roman&quot;&gt;MP3 file&lt;/font&gt;&lt;/b&gt;" style="endArrow=classic;html=1;rounded=0;fontFamily=Helvetica;fontSize=12;fontColor=default;exitX=0;exitY=0.5;exitDx=0;exitDy=0;entryX=1;entryY=0.5;entryDx=0;entryDy=0;" parent="1" source="Hd2ReHw1TCDyCZ7Bs2yk-48" target="Hd2ReHw1TCDyCZ7Bs2yk-61" edge="1">
          <mxGeometry x="-0.0004" width="50" height="50" relative="1" as="geometry">
            <mxPoint x="1328" y="1211" as="sourcePoint" />
            <mxPoint x="1378" y="1161" as="targetPoint" />
            <mxPoint as="offset" />
          </mxGeometry>
        </mxCell>
        <mxCell id="Hd2ReHw1TCDyCZ7Bs2yk-63" value="&lt;b&gt;&lt;font style=&quot;font-size: 8px;&quot;&gt;Song details&lt;/font&gt;&lt;/b&gt;" style="endArrow=classic;html=1;rounded=0;fontFamily=Helvetica;fontSize=12;fontColor=default;entryX=0.5;entryY=1;entryDx=0;entryDy=0;exitX=0.5;exitY=0;exitDx=0;exitDy=0;" parent="1" source="Hd2ReHw1TCDyCZ7Bs2yk-61" target="Hd2ReHw1TCDyCZ7Bs2yk-41" edge="1">
          <mxGeometry width="50" height="50" relative="1" as="geometry">
            <mxPoint x="1215" y="1175" as="sourcePoint" />
            <mxPoint x="1265" y="1125" as="targetPoint" />
          </mxGeometry>
        </mxCell>
        <mxCell id="Hd2ReHw1TCDyCZ7Bs2yk-64" value="Manage&lt;br&gt;Account" style="ellipse;whiteSpace=wrap;html=1;aspect=fixed;rounded=1;shadow=0;glass=0;strokeColor=default;align=center;verticalAlign=middle;fontFamily=Times New Roman;fontSize=11;fontColor=default;fillColor=default;fontStyle=1;direction=south;" parent="1" vertex="1">
          <mxGeometry x="1439" y="1039" width="60" height="60" as="geometry" />
        </mxCell>
        <mxCell id="Hd2ReHw1TCDyCZ7Bs2yk-65" value="&lt;font style=&quot;font-size: 8px;&quot; face=&quot;Times New Roman&quot;&gt;&lt;b&gt;Access&lt;/b&gt;&lt;/font&gt;" style="endArrow=classic;html=1;rounded=0;exitX=1;exitY=0.5;exitDx=0;exitDy=0;entryX=0.5;entryY=1;entryDx=0;entryDy=0;" parent="1" source="Hd2ReHw1TCDyCZ7Bs2yk-41" target="Hd2ReHw1TCDyCZ7Bs2yk-64" edge="1">
          <mxGeometry width="50" height="50" relative="1" as="geometry">
            <mxPoint x="1283" y="1088" as="sourcePoint" />
            <mxPoint x="1414" y="1014" as="targetPoint" />
          </mxGeometry>
        </mxCell>
        <mxCell id="Hd2ReHw1TCDyCZ7Bs2yk-66" value="&lt;b&gt;&lt;font face=&quot;Times New Roman&quot; style=&quot;font-size: 8px;&quot;&gt;Write&lt;/font&gt;&lt;/b&gt;" style="curved=1;endArrow=classic;html=1;rounded=0;exitX=0.5;exitY=0;exitDx=0;exitDy=0;" parent="1" source="Hd2ReHw1TCDyCZ7Bs2yk-64" edge="1">
          <mxGeometry width="50" height="50" relative="1" as="geometry">
            <mxPoint x="1506" y="1036" as="sourcePoint" />
            <mxPoint x="1708" y="1088" as="targetPoint" />
            <Array as="points">
              <mxPoint x="1526" y="1050" />
              <mxPoint x="1598" y="1072" />
            </Array>
          </mxGeometry>
        </mxCell>
        <mxCell id="Hd2ReHw1TCDyCZ7Bs2yk-67" value="&lt;b&gt;&lt;font style=&quot;font-size: 8px;&quot; face=&quot;Times New Roman&quot;&gt;Read&lt;/font&gt;&lt;/b&gt;" style="curved=1;endArrow=classic;html=1;rounded=0;entryX=0.5;entryY=0;entryDx=0;entryDy=0;" parent="1" target="Hd2ReHw1TCDyCZ7Bs2yk-64" edge="1">
          <mxGeometry width="50" height="50" relative="1" as="geometry">
            <mxPoint x="1706" y="1079" as="sourcePoint" />
            <mxPoint x="1643" y="1063" as="targetPoint" />
            <Array as="points">
              <mxPoint x="1657" y="1063" />
              <mxPoint x="1576" y="1044" />
            </Array>
          </mxGeometry>
        </mxCell>
        <mxCell id="Hd2ReHw1TCDyCZ7Bs2yk-68" value="&lt;font style=&quot;font-size: 24px;&quot; face=&quot;Times New Roman&quot;&gt;&lt;b&gt;Level 2 Data Flow Diagram&lt;/b&gt;&lt;/font&gt;" style="text;html=1;align=center;verticalAlign=middle;resizable=0;points=[];autosize=1;strokeColor=none;fillColor=none;" parent="1" vertex="1">
          <mxGeometry x="1376" y="1257" width="301" height="41" as="geometry" />
        </mxCell>
        <mxCell id="Hd2ReHw1TCDyCZ7Bs2yk-69" value="" style="endArrow=classic;html=1;rounded=0;exitX=1;exitY=0;exitDx=0;exitDy=0;" parent="1" source="Hd2ReHw1TCDyCZ7Bs2yk-13" edge="1">
          <mxGeometry width="50" height="50" relative="1" as="geometry">
            <mxPoint x="1424.96" y="313.00000000000017" as="sourcePoint" />
            <mxPoint x="1847" y="507.96" as="targetPoint" />
            <Array as="points" />
          </mxGeometry>
        </mxCell>
      </root>
    </mxGraphModel>
  </diagram>
</mxfile>
